<svg height="512pt" viewBox="-17 0 512 512.00003" width="512pt" xmlns="http://www.w3.org/2000/svg"><path d="m375.464844 196.265625c-4.710938 0-8.53125 3.820313-8.53125 8.535156v281.597657c0 4.714843-3.820313 8.535156-8.535156 8.535156h-332.796876c-4.714843 0-8.535156-3.820313-8.535156-8.535156v-460.796876c0-4.714843 3.820313-8.535156 8.535156-8.535156h332.796876c4.714843 0 8.535156-3.820312 8.535156-8.53125 0-4.714844-3.820313-8.535156-8.535156-8.535156h-332.796876c-14.140624 0-25.601562 11.460938-25.601562 25.601562v460.796876c0 14.140624 11.460938 25.601562 25.601562 25.601562h332.796876c14.140624 0 25.601562-11.460938 25.601562-25.601562v-281.597657c0-4.714843-3.820312-8.535156-8.535156-8.535156zm0 0"/><path d="m110.933594 187.734375v-72.269531c5.261718 2.746094 11.132812 4.121094 17.066406 4 4.609375-.292969 9.125 1.410156 12.390625 4.679687 3.265625 3.265625 4.96875 7.777344 4.675781 12.390625 0 4.710938 3.820313 8.53125 8.535156 8.53125 4.710938 0 8.53125-3.820312 8.53125-8.53125.269532-9.132812-3.238281-17.972656-9.699218-24.433594-6.460938-6.460937-15.300782-9.972656-24.433594-9.703124-4.609375.296874-9.125-1.40625-12.390625-4.675782-3.265625-3.265625-4.96875-7.777344-4.675781-12.390625 0-4.710937-3.820313-8.53125-8.535156-8.53125-4.710938 0-8.53125 3.820313-8.53125 8.53125v78.371094c-2.734376-1.011719-5.621094-1.542969-8.535157-1.570313-10.351562 0-19.6875 6.238282-23.648437 15.804688-3.964844 9.566406-1.773438 20.578125 5.546875 27.898438 7.324219 7.320312 18.332031 9.511718 27.898437 5.546874 9.566406-3.960937 15.804688-13.296874 15.804688-23.648437zm-34.132813 0c0-4.714844 3.820313-8.535156 8.53125-8.535156 4.714844 0 8.535157 3.820312 8.535157 8.535156 0 4.710937-3.820313 8.53125-8.535157 8.53125-4.710937 0-8.53125-3.820313-8.53125-8.53125zm0 0"/><path d="m281.601562 290.132812c0-4.710937-3.820312-8.53125-8.535156-8.53125-4.710937 0-8.53125 3.820313-8.53125 8.53125v78.371094c-2.734375-1.011718-5.621094-1.542968-8.535156-1.570312-14.136719 0-25.601562 11.460937-25.601562 25.601562 0 14.136719 11.464843 25.597656 25.601562 25.597656s25.601562-11.460937 25.601562-25.597656v-72.269531c5.261719 2.746094 11.128907 4.121094 17.066407 4 4.609375-.292969 9.121093 1.410156 12.390625 4.675781 3.265625 3.269532 4.96875 7.78125 4.675781 12.390625 0 4.714844 3.820313 8.535157 8.53125 8.535157 4.714844 0 8.535156-3.820313 8.535156-8.535157.269531-9.132812-3.242187-17.972656-9.703125-24.429687-6.457031-6.460938-15.296875-9.972656-24.429687-9.703125-4.613281.292969-9.125-1.410157-12.390625-4.675781-3.265625-3.265626-4.972656-7.78125-4.675782-12.390626zm-25.601562 110.933594c-4.710938 0-8.535156-3.820312-8.535156-8.53125 0-4.714844 3.824218-8.535156 8.535156-8.535156s8.535156 3.820312 8.535156 8.535156c0 4.710938-3.824218 8.53125-8.535156 8.53125zm0 0"/><path d="m315.734375 85.332031c0-4.710937-3.820313-8.53125-8.535156-8.53125h-119.464844c-4.714844 0-8.535156 3.820313-8.535156 8.53125 0 4.714844 3.820312 8.535157 8.535156 8.535157h119.464844c4.714843 0 8.535156-3.820313 8.535156-8.535157zm0 0"/><path d="m281.601562 119.464844c0-4.710938-3.820312-8.53125-8.535156-8.53125h-85.332031c-4.714844 0-8.535156 3.820312-8.535156 8.53125 0 4.714844 3.820312 8.535156 8.535156 8.535156h85.332031c4.714844 0 8.535156-3.820312 8.535156-8.535156zm0 0"/><path d="m256 153.601562c0-4.714843-3.820312-8.535156-8.535156-8.535156h-59.730469c-4.714844 0-8.535156 3.820313-8.535156 8.535156 0 4.710938 3.820312 8.53125 8.535156 8.53125h59.730469c4.714844 0 8.535156-3.820312 8.535156-8.53125zm0 0"/><path d="m221.867188 187.734375c0-4.714844-3.820313-8.535156-8.535157-8.535156h-25.597656c-4.714844 0-8.535156 3.820312-8.535156 8.535156 0 4.710937 3.820312 8.53125 8.535156 8.53125h25.597656c4.714844 0 8.535157-3.820313 8.535157-8.53125zm0 0"/><path d="m51.199219 298.667969h119.46875c4.710937 0 8.53125-3.820313 8.53125-8.535157 0-4.710937-3.820313-8.53125-8.53125-8.53125h-119.46875c-4.710938 0-8.53125 3.820313-8.53125 8.53125 0 4.714844 3.820312 8.535157 8.53125 8.535157zm0 0"/><path d="m204.800781 221.867188c0-4.714844-3.820312-8.535157-8.535156-8.535157h-8.53125c-4.714844 0-8.535156 3.820313-8.535156 8.535157 0 4.710937 3.820312 8.53125 8.535156 8.53125h8.53125c4.714844 0 8.535156-3.820313 8.535156-8.53125zm0 0"/><path d="m332.800781 264.535156c4.710938 0 8.53125-3.824218 8.53125-8.535156s-3.820312-8.535156-8.53125-8.535156h-17.066406c-4.714844 0-8.535156 3.824218-8.535156 8.535156s3.820312 8.535156 8.535156 8.535156zm0 0"/><path d="m42.667969 256c0 4.710938 3.820312 8.535156 8.53125 8.535156h119.46875c4.710937 0 8.53125-3.824218 8.53125-8.535156s-3.820313-8.535156-8.53125-8.535156h-119.46875c-4.710938 0-8.53125 3.824218-8.53125 8.535156zm0 0"/><path d="m196.265625 315.734375h-145.066406c-4.710938 0-8.53125 3.820313-8.53125 8.53125 0 4.714844 3.820312 8.535156 8.53125 8.535156h145.066406c4.714844 0 8.535156-3.820312 8.535156-8.535156 0-4.710937-3.820312-8.53125-8.535156-8.53125zm0 0"/><path d="m196.265625 349.867188h-145.066406c-4.710938 0-8.53125 3.820312-8.53125 8.53125 0 4.714843 3.820312 8.535156 8.53125 8.535156h145.066406c4.714844 0 8.535156-3.820313 8.535156-8.535156 0-4.710938-3.820312-8.53125-8.535156-8.53125zm0 0"/><path d="m196.265625 384h-145.066406c-4.710938 0-8.53125 3.820312-8.53125 8.535156 0 4.710938 3.820312 8.53125 8.53125 8.53125h145.066406c4.714844 0 8.535156-3.820312 8.535156-8.53125 0-4.714844-3.820312-8.535156-8.535156-8.535156zm0 0"/><path d="m196.265625 418.132812h-145.066406c-4.710938 0-8.53125 3.820313-8.53125 8.535157 0 4.710937 3.820312 8.53125 8.53125 8.53125h145.066406c4.714844 0 8.535156-3.820313 8.535156-8.53125 0-4.714844-3.820312-8.535157-8.535156-8.535157zm0 0"/><path d="m463.648438 35.566406-19.230469-19.226562c-10.550781-10.066406-27.152344-10.066406-37.703125 0l-13.976563 13.980468c-9.945312-5.277343-22.171875-3.449218-30.140625 4.503907l-7.910156 7.902343c-7.941406 7.976563-9.765625 20.191407-4.496094 30.140626l-108.332031 108.371093c-.433594.4375-.800781.929688-1.203125 1.390625-1.078125.894532-1.921875 2.039063-2.449219 3.339844-.261719.417969-.5625.851562-.800781 1.253906l-39.390625 73.15625c-4.363281 8.050782-2.914063 18.015625 3.566406 24.492188 6.476563 6.472656 16.441407 7.921875 24.492188 3.554687l16.75-9.019531c.121093-.050781.222656-.128906.339843-.1875l56.074219-30.191406c.367188-.195313.640625-.527344 1-.742188 1.511719-.554687 2.832031-1.539062 3.796875-2.832031.355469-.316406.851563-.519531 1.160156-.855469l108.371094-108.371094c9.972656 5.101563 22.085938 3.292969 30.132813-4.496093l7.917969-7.921875c7.945312-7.964844 9.765624-20.179688 4.496093-30.121094l13.980469-13.984375c10.390625-10.421875 10.390625-27.289063 0-37.710937zm-102.175782 50.152344 13.574219 13.566406-19.625 19.625c-2.21875 2.144532-3.109375 5.316406-2.328125 8.300782.78125 2.984374 3.113281 5.3125 6.09375 6.09375 2.984375.78125 6.15625-.109376 8.300781-2.328126l19.625-19.625 13.570313 13.578126-98.832032 98.832031-.070312-.136719c-2.855469-5.859375-7.515625-10.644531-13.292969-13.652344l53.382813-53.386718c2.21875-2.140626 3.109375-5.316407 2.328125-8.296876-.78125-2.984374-3.113281-5.316406-6.09375-6.09375-2.984375-.78125-6.15625.105469-8.300781 2.324219l-53.425782 53.453125c-2.398437-4.488281-5.882812-8.300781-10.140625-11.09375-.710937-.675781-1.535156-1.222656-2.4375-1.613281h-.078125c-.367187-.203125-.714844-.433594-1.09375-.621094zm-110.59375 112.460938c1.65625.367187 3.253906.96875 4.746094 1.78125.160156.113281.324219.222656.496094.324218 4.867187 3.070313 7.609375 8.605469 7.105468 14.335938v.050781c.054688.503906.152344 1 .300782 1.484375.0625.617188.1875 1.226562.375 1.820312.1875.324219.394531.632813.621094.929688.328124.640625.730468 1.234375 1.203124 1.773438.296876.238281.613282.449218.941407.640624.535156.46875 1.128906.867188 1.765625 1.1875.554687.167969 1.128906.285157 1.707031.347657.523437.160156 1.066406.269531 1.613281.324219h.125c7.8125-.714844 14.886719 4.628906 16.335938 12.339843l-41.925782 22.570313c-2.972656-8.40625-9.59375-15.019532-18.003906-17.980469zm-32.886718 75.175781c-1.429688.75-3.179688.480469-4.316407-.664063-1.125-1.132812-1.371093-2.863281-.617187-4.265625l6.921875-12.859375c2.738281.421875 5.28125 1.671875 7.289062 3.582032 1.898438 2.007812 3.148438 4.546874 3.582031 7.277343zm221.527343-161.628907-7.921875 7.917969c-3.378906 3.21875-8.6875 3.21875-12.066406 0l-52.699219-52.699219c-1.601562-1.601562-2.503906-3.773437-2.503906-6.039062s.902344-4.4375 2.503906-6.035156l7.910157-7.902344c1.601562-1.605469 3.773437-2.503906 6.035156-2.503906 2.265625 0 4.4375.898437 6.039062 2.503906l.75.75 51.277344 51.269531.75.75c3.261719 3.34375 3.226562 8.6875-.074219 11.988281zm18.472657-44.109374-13.191407 13.195312-39.210937-39.253906 13.191406-13.144532c3.792969-3.628906 9.773438-3.628906 13.570312 0l25.640626 25.601563c1.804687 1.804687 2.816406 4.25 2.816406 6.800781 0 2.550782-1.011719 5-2.816406 6.800782zm0 0"/></svg>